<?xml version="1.0" standalone="no"?>
<!DOCTYPE svg PUBLIC "-//W3C//DTD SVG 20010904//EN"
 "http://www.w3.org/TR/2001/REC-SVG-20010904/DTD/svg10.dtd">
<svg version="1.0" xmlns="http://www.w3.org/2000/svg"
 width="700.000000pt" height="700.000000pt" viewBox="0 0 700.000000 700.000000"
 preserveAspectRatio="xMidYMid meet">
<metadata>
Created by potrace 1.11, written by Peter Selinger 2001-2013
</metadata>
<g transform="translate(0.000000,700.000000) scale(0.100000,-0.100000)"
fill="#000000" stroke="none">
<path d="M1539 6977 c-6 -90 2 -277 16 -387 2 -19 7 -57 10 -85 2 -27 7 -70 9
-95 10 -96 17 -179 21 -264 2 -49 7 -115 11 -145 4 -31 6 -60 6 -66 -1 -5 -3
-28 -6 -50 -3 -22 -7 -54 -9 -71 -6 -47 16 -89 61 -119 40 -26 95 -36 112 -19
4 5 11 41 15 79 6 73 13 136 20 195 7 59 17 144 20 170 2 24 11 82 22 145 3
17 6 44 8 60 6 49 44 207 62 255 17 46 42 74 55 62 4 -4 11 -25 17 -47 6 -22
23 -92 39 -155 17 -63 33 -138 36 -165 4 -28 23 -111 43 -185 19 -74 37 -142
38 -150 2 -8 4 -16 5 -17 3 -4 7 -19 9 -33 0 -5 22 -23 48 -41 57 -40 123 -46
148 -14 19 24 45 81 51 109 2 12 6 32 9 46 7 39 15 135 20 265 11 254 21 317
55 335 15 8 21 6 29 -8 10 -20 49 -148 57 -192 3 -14 7 -33 10 -42 6 -22 14
-56 20 -93 11 -63 55 -200 86 -269 64 -142 102 -183 138 -151 16 15 16 20 3
78 -8 34 -16 85 -18 112 -4 55 -12 125 -20 168 -14 79 -24 148 -30 198 -11
106 -22 153 -53 224 -30 68 -29 66 -75 119 -26 30 -41 39 -65 39 -18 0 -32 4
-32 9 0 13 -29 9 -66 -8 -37 -18 -63 -57 -83 -124 -7 -25 -19 -61 -27 -80 -8
-19 -28 -105 -44 -190 -54 -277 -64 -312 -69 -242 -10 152 -12 163 -36 257 -8
33 -17 72 -20 87 -3 15 -21 75 -41 135 -36 108 -73 173 -99 173 -8 0 -30 9
-50 20 -38 22 -54 19 -104 -18 -23 -17 -48 -55 -82 -126 -27 -56 -49 -109 -49
-118 0 -9 -4 -19 -8 -22 -5 -3 -8 50 -7 117 1 129 -14 237 -38 284 -27 52 -54
68 -118 70 -54 2 -59 0 -60 -20z m1146 -701 c2 -20 7 -41 10 -46 3 -6 2 -10
-4 -10 -6 0 -13 17 -16 38 -4 20 -9 46 -12 57 -4 15 -2 17 7 9 7 -7 14 -28 15
-48z m21 -101 c9 -50 -1 -54 -14 -5 -5 22 -6 40 -1 40 4 0 11 -16 15 -35z m26
-100 c3 -14 1 -25 -3 -25 -5 0 -9 3 -10 8 0 4 -2 15 -4 25 -2 9 0 17 5 17 4 0
10 -11 12 -25z"/>
<path d="M4487 6315 c-1 -1 -42 -5 -92 -9 -111 -8 -126 -10 -390 -59 -11 -2
-27 -7 -35 -10 -16 -6 -88 -25 -105 -28 -5 -1 -26 -9 -45 -19 -19 -10 -39 -19
-45 -20 -5 -1 -21 -7 -35 -12 -14 -6 -29 -11 -35 -12 -5 -1 -41 -18 -80 -37
-137 -70 -256 -156 -343 -248 -29 -31 -57 -55 -63 -53 -6 1 -8 -2 -4 -8 3 -5
-5 -21 -19 -35 -15 -14 -26 -30 -26 -34 0 -4 -11 -20 -25 -35 -13 -14 -25 -29
-25 -31 0 -3 0 -10 0 -16 0 -5 -5 -7 -11 -4 -6 4 -9 1 -8 -6 2 -8 -4 -27 -13
-44 -28 -53 -86 -204 -81 -209 3 -3 2 -11 -3 -18 -12 -16 -6 -213 6 -213 1 0
3 -8 5 -17 5 -26 61 -121 82 -138 10 -9 33 -35 52 -57 19 -23 38 -40 42 -37 4
2 10 -5 14 -16 3 -11 10 -20 14 -20 4 0 16 -8 27 -17 10 -10 42 -36 69 -58 79
-63 296 -285 278 -285 -3 0 4 -8 15 -19 12 -10 22 -22 22 -26 0 -4 9 -19 20
-34 31 -45 100 -188 121 -253 46 -144 49 -272 9 -403 -11 -38 -22 -74 -23 -80
-10 -42 -141 -281 -167 -305 -21 -20 -50 -72 -44 -82 4 -6 3 -8 -3 -5 -14 9
-37 -19 -27 -34 4 -7 3 -9 -4 -5 -6 3 -19 -5 -29 -19 -10 -14 -26 -35 -36 -48
-10 -12 -31 -37 -45 -56 -15 -19 -41 -51 -57 -70 -17 -20 -48 -58 -70 -86 -22
-27 -44 -55 -50 -61 -5 -6 -19 -23 -30 -39 -11 -15 -27 -36 -36 -45 -27 -28
-147 -193 -161 -220 -7 -14 -15 -27 -19 -30 -3 -3 -13 -23 -23 -45 -9 -22 -21
-48 -26 -57 -19 -34 -24 -99 -9 -109 12 -7 12 -9 0 -9 -11 0 -11 -3 0 -17 12
-14 12 -16 -1 -9 -12 6 -11 4 1 -6 9 -7 14 -19 11 -27 -2 -8 0 -11 5 -8 6 4
15 -5 22 -19 6 -14 15 -23 19 -20 5 3 14 -4 22 -14 8 -10 17 -17 22 -14 4 3 8
0 8 -7 0 -7 3 -10 6 -7 3 4 21 0 40 -8 19 -8 34 -11 34 -8 0 4 6 2 13 -3 6 -6
19 -10 27 -10 8 0 35 -3 59 -8 31 -5 42 -4 37 4 -5 7 -1 9 8 5 9 -3 16 -11 16
-16 0 -6 7 -5 16 3 9 7 18 9 22 3 10 -13 35 -17 27 -4 -4 6 4 10 19 10 14 0
26 -6 26 -12 0 -10 2 -10 9 0 6 11 54 12 242 7 307 -8 418 -13 430 -21 6 -3
28 -8 51 -11 57 -6 150 -42 171 -66 10 -12 20 -31 23 -44 14 -53 -22 -167 -78
-250 -16 -24 -26 -43 -23 -43 4 0 0 -7 -7 -15 -30 -33 -38 -45 -38 -54 0 -5
-3 -11 -7 -13 -5 -1 -28 -28 -53 -58 -25 -30 -50 -59 -58 -63 -7 -5 -9 -13 -6
-19 4 -6 3 -8 -3 -5 -6 4 -22 -4 -34 -18 -27 -29 -99 -65 -142 -72 -40 -6 -71
18 -103 82 -16 30 -32 55 -36 55 -4 0 -8 7 -8 17 0 9 -3 13 -6 10 -4 -4 -14 2
-23 12 -39 45 -124 67 -186 48 -47 -14 -105 -41 -105 -49 0 -5 -7 -8 -15 -8
-7 0 -19 -8 -24 -17 -6 -10 -11 -14 -11 -9 0 4 -9 -2 -20 -15 -10 -13 -19 -21
-20 -16 0 4 -16 -10 -35 -30 -19 -20 -35 -33 -35 -29 0 5 -6 4 -12 -1 -19 -15
-93 -3 -93 15 0 6 -4 14 -9 19 -5 4 -6 3 -3 -4 10 -17 -15 -22 -31 -6 -8 7
-18 10 -24 7 -7 -4 -8 -2 -4 4 7 11 -13 17 -38 13 -5 -1 -3 5 4 14 7 9 9 15 4
14 -15 -5 -54 12 -54 22 0 6 -5 7 -11 4 -5 -4 -19 1 -30 11 -10 9 -19 14 -19
9 0 -4 -6 -3 -12 2 -50 39 -177 50 -234 20 -30 -16 -72 -68 -95 -119 -6 -15
-15 -26 -19 -23 -3 2 -4 -10 -2 -27 3 -22 1 -29 -7 -24 -8 6 -10 0 -5 -18 5
-21 3 -26 -12 -26 -14 0 -16 -2 -6 -9 19 -11 19 -15 3 -34 -9 -12 -10 -17 -2
-17 7 0 9 -5 5 -12 -11 -18 -12 -48 -2 -48 5 0 4 -8 -1 -18 -6 -11 -6 -24 0
-35 7 -12 6 -17 -2 -17 -9 0 -9 -3 0 -14 9 -10 9 -16 1 -21 -8 -5 -8 -11 1
-21 19 -23 3 -45 -30 -39 -61 11 -218 67 -300 109 -189 94 -314 206 -438 391
-45 68 -123 220 -123 240 0 7 -4 15 -8 17 -10 4 -84 235 -111 343 -18 73 -66
317 -76 390 -23 162 -36 260 -40 310 -3 33 -8 71 -11 85 -2 14 -7 46 -9 73
-10 97 -14 134 -20 202 -3 39 -8 85 -11 104 -2 18 -7 70 -9 115 -8 126 -13
187 -19 241 -4 28 -8 68 -11 90 -5 45 -15 174 -20 250 -2 28 -7 88 -11 135 -4
47 -7 95 -7 107 1 13 -3 21 -7 18 -5 -3 -5 7 -1 21 10 37 2 95 -13 87 -7 -4
-8 -2 -1 5 12 14 7 104 -6 96 -5 -3 -10 9 -11 25 0 17 -2 48 -4 69 -1 20 -5
100 -9 177 -4 77 -9 147 -11 155 -1 8 -3 41 -3 73 -1 46 -4 57 -17 57 -13 0
-14 -3 -5 -14 9 -10 9 -16 1 -21 -6 -4 -13 -5 -15 -3 -5 4 -13 89 -21 208 -3
47 -6 90 -6 97 -1 7 -5 10 -9 7 -5 -2 -5 -12 -2 -21 5 -12 2 -15 -10 -10 -16
6 -16 5 -1 -18 10 -15 12 -25 5 -25 -6 0 -11 5 -11 12 0 6 -3 8 -7 4 -5 -4 1
-14 11 -22 19 -13 19 -14 2 -14 -14 0 -16 -3 -7 -13 6 -8 9 -16 7 -18 -10 -10
-14 -89 -5 -95 6 -3 6 -11 1 -17 -17 -23 -19 -116 -7 -312 4 -66 8 -185 10
-265 2 -80 4 -147 6 -150 1 -3 3 -25 4 -50 2 -25 3 -47 4 -50 1 -3 3 -48 6
-100 3 -52 7 -124 10 -160 8 -118 16 -214 20 -255 6 -61 17 -167 21 -200 1
-16 5 -68 9 -114 3 -46 7 -87 10 -90 2 -4 0 -13 -5 -21 -5 -9 -5 -19 2 -27 6
-7 7 -13 3 -13 -4 0 -1 -8 6 -17 12 -14 12 -15 1 -9 -11 7 -12 4 -3 -12 14
-27 14 -35 -2 -26 -9 6 -9 5 0 -7 7 -9 11 -25 8 -37 -2 -12 1 -22 7 -22 6 0 8
-16 5 -40 -2 -22 0 -37 4 -34 5 3 10 -5 10 -18 1 -13 3 -32 4 -43 1 -11 5 -47
9 -80 3 -33 8 -71 11 -84 2 -14 7 -47 10 -75 3 -28 8 -67 11 -86 6 -43 18
-122 29 -187 3 -18 7 -45 9 -60 12 -80 44 -240 56 -278 5 -16 12 -43 15 -60 7
-34 7 -33 25 -95 7 -25 14 -49 16 -55 8 -37 69 -197 98 -260 137 -292 320
-493 566 -622 71 -37 183 -86 194 -84 3 0 25 -6 48 -15 23 -8 71 -21 107 -29
36 -8 76 -17 89 -20 13 -3 20 -10 17 -15 -3 -5 -1 -11 5 -15 6 -4 8 -11 5 -16
-4 -5 -1 -9 6 -9 8 0 7 -5 -2 -17 -12 -14 -12 -16 0 -8 11 6 13 4 8 -8 -3 -10
-2 -17 4 -17 6 0 8 -4 4 -9 -3 -5 -1 -12 4 -15 5 -3 16 -29 25 -58 10 -29 24
-67 32 -85 8 -17 11 -39 7 -49 -4 -11 -3 -15 4 -11 7 4 24 -20 42 -59 35 -75
37 -81 16 -64 -8 7 -12 17 -8 23 4 6 1 7 -6 3 -9 -6 -8 -13 5 -27 9 -10 20
-16 25 -13 4 2 13 -4 18 -15 8 -14 8 -21 -2 -24 -7 -3 -5 -6 5 -6 20 -1 42
-37 32 -53 -4 -7 -3 -8 4 -4 13 8 75 -72 66 -85 -3 -5 0 -8 8 -7 7 2 12 -3 10
-10 -1 -8 2 -11 7 -8 5 3 21 -11 37 -32 19 -24 22 -32 9 -22 -19 14 -19 14 -6
-2 7 -10 20 -18 27 -18 8 0 14 -7 14 -15 0 -8 4 -15 9 -15 5 0 19 -11 32 -25
13 -13 29 -25 36 -25 6 0 13 -3 15 -7 5 -14 105 -63 112 -56 3 3 6 2 6 -4 0
-6 7 -14 16 -17 10 -4 13 -2 9 7 -4 6 -1 5 7 -3 13 -15 26 -20 63 -25 11 -1
20 -3 20 -4 0 -12 166 -21 227 -13 21 2 36 8 33 12 -3 5 4 6 15 3 11 -3 20 0
20 6 0 6 5 11 11 11 5 0 7 -4 4 -10 -3 -6 1 -7 9 -4 9 3 16 10 16 15 0 4 7 6
15 3 8 -4 15 -1 15 5 0 6 7 8 17 4 11 -4 14 -3 9 6 -5 8 0 10 18 7 15 -3 24
-2 22 2 -2 4 7 12 20 19 17 8 22 8 17 0 -4 -6 7 -1 24 11 17 12 33 19 37 15 3
-3 6 -1 6 6 0 7 5 9 10 6 6 -3 10 -1 10 5 0 6 4 9 10 5 5 -3 18 2 28 12 10 10
24 19 29 20 21 4 88 55 88 66 0 7 8 11 18 9 9 -2 17 2 17 8 0 5 4 10 10 10 18
0 146 135 186 195 58 88 75 132 81 205 10 137 -61 241 -217 317 -179 86 -434
114 -810 88 -148 -10 -410 -13 -410 -6 0 4 -17 6 -38 7 -95 3 -162 8 -171 13
-22 14 -32 199 -17 315 6 45 50 137 64 135 4 -1 9 0 12 1 3 1 12 3 20 5 8 1
20 4 25 5 23 5 36 -1 29 -12 -4 -7 -4 -10 1 -6 4 4 13 4 19 -1 21 -16 47 -21
41 -8 -4 6 0 4 8 -6 12 -14 165 -97 190 -103 4 -1 8 -2 10 -4 6 -5 44 -11 65
-11 12 0 22 -4 22 -10 0 -7 6 -7 17 2 11 10 14 10 9 1 -4 -6 -3 -12 3 -12 5 0
12 6 14 13 4 9 8 8 16 -3 7 -9 11 -10 11 -3 0 7 10 10 26 7 14 -3 23 -1 21 3
-3 5 6 13 19 20 18 8 22 8 17 0 -3 -7 18 13 48 44 54 56 90 80 158 103 51 18
94 -1 129 -59 15 -24 38 -62 51 -84 28 -46 91 -85 124 -76 17 5 19 4 7 -5 -11
-8 -5 -9 25 -6 22 3 50 5 63 5 13 1 20 5 17 11 -3 5 0 7 8 4 17 -6 87 33 87
49 0 6 3 7 7 4 9 -10 142 128 197 206 26 37 52 67 57 67 5 0 9 5 9 11 0 6 9
23 20 39 11 15 17 30 13 34 -3 3 -1 6 6 6 7 0 9 5 6 10 -3 6 -2 10 2 10 9 0
21 25 54 114 19 50 31 146 18 146 -4 0 -5 8 -2 19 3 10 0 22 -6 25 -6 4 -11
16 -11 26 0 10 -3 20 -7 22 -5 2 -20 18 -35 36 -16 19 -28 31 -28 27 0 -4 -7
1 -16 10 -9 9 -23 14 -31 11 -8 -3 -11 -1 -8 4 6 9 -8 14 -27 11 -5 0 -8 4 -8
10 0 6 -9 9 -20 6 -10 -3 -20 -1 -22 4 -2 6 -25 11 -51 12 -26 1 -47 4 -47 7
0 3 -18 5 -40 3 -23 -1 -38 2 -35 8 4 5 -3 5 -18 0 -14 -6 -28 -7 -32 -3 -9 9
-49 11 -410 16 -390 6 -442 12 -499 57 -24 19 -27 27 -22 60 10 68 69 168 200
334 39 50 73 92 76 95 8 7 189 226 235 285 22 27 48 58 57 69 33 36 165 241
211 326 51 94 101 237 113 321 20 145 -2 306 -60 443 -9 21 -13 43 -9 49 3 5
2 7 -4 4 -11 -7 -33 33 -33 58 0 8 -5 15 -11 15 -5 0 -7 5 -4 10 3 6 2 10 -3
10 -10 0 -25 37 -23 53 1 5 -2 6 -7 3 -9 -5 -29 28 -30 48 0 5 -7 13 -16 18
-9 5 -16 16 -16 23 0 8 -4 15 -8 15 -4 0 -15 13 -24 28 -10 16 -46 59 -81 96
-35 36 -61 69 -58 71 2 3 0 5 -6 5 -5 0 -32 21 -59 48 -27 26 -83 76 -124 112
-86 74 -160 149 -160 162 0 5 -4 6 -10 3 -5 -3 -10 3 -10 14 0 11 -4 22 -9 25
-18 11 -36 186 -22 211 3 6 7 19 8 30 2 11 8 22 13 23 6 2 8 8 5 13 -3 4 2 20
11 34 9 14 13 25 9 25 -4 0 -2 6 4 13 6 8 8 17 4 20 -3 4 -1 7 5 7 7 0 12 5
12 10 0 12 52 94 63 98 4 2 5 8 2 12 -3 5 5 16 17 24 12 9 18 16 13 16 -11 0
126 135 173 170 19 14 39 30 45 35 27 23 125 78 210 119 160 76 373 137 562
162 28 3 58 8 67 9 92 18 423 21 423 5 0 -1 18 -4 40 -5 22 -2 40 -4 40 -5 0
-2 37 -10 65 -14 41 -5 101 -17 160 -33 30 -8 62 -16 70 -18 32 -7 154 -56
167 -66 7 -6 13 -8 13 -3 0 5 4 4 8 -1 4 -6 30 -25 59 -43 28 -19 53 -36 55
-40 2 -4 23 -25 48 -47 50 -45 25 -10 -32 45 -70 67 -96 88 -102 82 -3 -3 -6
0 -6 6 0 7 2 12 5 12 5 0 75 -44 104 -65 28 -21 111 -107 111 -115 0 -5 6 -15
13 -22 6 -7 22 -33 34 -58 13 -25 23 -38 24 -30 9 86 8 96 -12 123 -12 16 -22
35 -23 43 -4 25 -90 115 -153 160 -96 69 -247 132 -380 159 -10 2 -29 6 -43 9
-76 18 -191 34 -291 42 -85 6 -267 12 -272 9z m848 -235 c3 -6 -1 -7 -9 -4
-18 7 -21 14 -7 14 6 0 13 -4 16 -10z m316 -208 c6 -7 9 -17 7 -22 -2 -6 -16
11 -31 37 -16 29 -19 38 -7 23 11 -14 25 -31 31 -38z m5 -68 c1 -9 -1 -13 -4
-9 -4 4 -7 10 -7 13 0 4 -4 14 -9 22 -7 12 -6 13 4 3 8 -7 15 -20 16 -29z
m-1983 -4859 c77 -3 131 -11 187 -26 19 -5 47 -9 63 -9 15 0 27 -4 27 -8 0 -4
12 -9 27 -10 14 -1 34 -9 43 -17 9 -8 20 -12 23 -8 4 3 7 1 7 -5 0 -6 8 -13
18 -16 32 -11 90 -69 105 -106 18 -45 15 -95 -8 -145 -10 -22 -17 -43 -17 -47
1 -5 -3 -8 -10 -8 -6 0 -9 -2 -6 -5 6 -6 -17 -35 -69 -90 -17 -18 -29 -36 -25
-41 4 -4 2 -5 -3 -1 -6 3 -31 -12 -55 -34 -25 -21 -48 -39 -52 -39 -4 0 -13
-7 -21 -14 -21 -22 -201 -116 -220 -116 -9 0 -17 -4 -17 -10 0 -5 -4 -10 -9
-10 -5 0 -22 -5 -38 -12 -30 -12 -34 -13 -73 -22 -14 -3 -36 -8 -50 -11 -45
-10 -166 -8 -206 5 -61 18 -176 78 -214 111 -128 109 -200 206 -294 401 -45
91 -110 277 -101 286 2 2 14 3 27 2 98 -9 854 5 867 16 2 2 8 1 13 -2 5 -3 42
-7 81 -9z"/>
<path d="M5668 5723 c5 -21 7 -23 10 -9 2 10 0 22 -6 28 -6 6 -7 0 -4 -19z"/>
<path d="M5067 5524 c-1 -1 -56 -7 -122 -13 -66 -6 -133 -13 -150 -16 -92 -16
-145 -28 -188 -42 -26 -8 -53 -16 -60 -17 -12 -3 -21 -6 -62 -22 -11 -4 -22
-8 -25 -9 -50 -12 -60 -17 -54 -27 5 -7 2 -9 -9 -5 -9 3 -23 0 -31 -8 -7 -8
-16 -11 -20 -8 -3 4 -6 1 -6 -5 0 -7 -9 -12 -20 -12 -11 0 -20 -5 -20 -11 0
-5 -4 -7 -10 -4 -5 3 -10 1 -10 -4 0 -6 -5 -11 -10 -11 -19 0 -90 -52 -84 -61
3 -5 2 -8 -3 -7 -10 3 -131 -93 -132 -105 -1 -5 -13 -24 -27 -43 -15 -19 -23
-34 -18 -34 4 0 -2 -9 -14 -21 -12 -11 -20 -24 -17 -30 4 -5 2 -9 -3 -9 -11 0
-48 -143 -51 -200 -1 -13 -2 -13 -11 0 -7 11 -8 6 -5 -15 2 -17 4 -30 5 -30 4
0 11 -43 15 -85 2 -25 5 -46 6 -47 1 -2 2 -6 4 -10 1 -5 5 -16 9 -25 4 -9 5
-22 1 -28 -3 -5 -2 -10 3 -10 17 0 32 -46 19 -59 -9 -9 -8 -11 6 -6 10 4 17 2
17 -5 0 -6 6 -18 13 -25 6 -8 26 -32 42 -54 17 -22 42 -45 58 -52 15 -6 27
-15 27 -19 0 -9 143 -110 210 -148 66 -37 186 -83 194 -75 3 4 6 1 6 -5 0 -7
8 -12 18 -12 9 0 36 -7 60 -15 23 -8 63 -17 90 -20 26 -3 65 -8 87 -12 62 -10
195 -11 189 -1 -3 4 -1 8 5 8 5 0 11 -6 14 -12 3 -10 7 -10 19 0 9 7 20 12 24
11 5 -1 11 0 14 1 3 1 25 3 50 4 25 1 57 10 73 20 15 10 27 14 27 8 0 -6 9 -8
20 -5 11 3 20 9 20 13 0 5 9 6 20 3 12 -3 20 0 20 6 0 7 4 10 9 6 5 -3 12 -1
16 5 4 6 10 8 14 6 10 -7 132 56 211 109 60 40 174 145 210 192 39 51 105 185
119 238 6 22 17 66 25 98 13 54 6 83 -10 35 -7 -21 -8 -21 -19 12 -7 19 -10
40 -7 45 3 6 -2 4 -11 -4 -9 -7 -17 -10 -17 -5 0 5 -5 2 -10 -6 -14 -22 -13 6
2 33 9 19 9 20 -3 11 -20 -16 -52 -14 -38 2 8 9 5 11 -10 7 -20 -5 -53 -32
-68 -55 -4 -7 -35 -35 -68 -63 -33 -27 -61 -53 -63 -57 -2 -5 -9 -8 -15 -8 -7
0 -28 -15 -47 -33 -49 -46 -83 -69 -172 -114 -43 -22 -75 -43 -72 -46 3 -3 -3
-3 -15 0 -13 3 -21 1 -21 -6 0 -7 -4 -9 -10 -6 -5 3 -10 1 -10 -5 0 -6 -4 -9
-8 -6 -5 3 9 41 30 85 39 82 50 143 50 286 0 71 -4 97 -28 150 -10 22 -18 43
-18 47 -1 3 -5 10 -10 15 -5 5 -6 2 -2 -7 5 -8 -3 -1 -18 15 -25 29 -34 51
-18 41 5 -3 22 -7 38 -10 88 -16 136 -29 191 -53 17 -7 37 -13 45 -13 7 0 43
-13 80 -29 38 -16 76 -27 87 -24 10 3 37 -7 60 -21 44 -28 62 -33 58 -15 -4
20 21 21 40 2 11 -10 29 -19 41 -20 l22 -3 -24 65 c-22 60 -21 69 5 67 11 -1
0 57 -19 93 -33 65 -132 169 -213 223 -42 29 -81 52 -88 52 -6 0 -11 4 -11 9
0 5 -30 17 -67 26 -38 10 -73 24 -79 32 -8 9 -13 10 -16 3 -2 -8 -11 -8 -32 0
-16 6 -53 12 -83 13 -29 1 -53 4 -53 7 0 4 -99 8 -103 4z m-79 -436 c86 -26
176 -170 181 -287 1 -33 -1 -66 -5 -73 -4 -7 -9 -21 -10 -33 -4 -38 -22 -71
-64 -117 -73 -82 -175 -113 -237 -73 -12 9 -23 13 -23 11 0 -3 -15 9 -34 27
-18 18 -32 35 -29 40 2 4 0 7 -5 7 -10 0 -44 64 -48 90 -1 8 -5 26 -8 40 -15
62 -18 90 -10 90 5 0 10 21 11 47 2 32 8 52 20 60 9 7 12 13 6 13 -6 0 -9 9
-6 21 4 13 8 17 13 9 5 -7 9 -3 13 12 4 12 6 23 5 23 -12 0 69 70 102 89 45
26 57 26 128 4z m-328 -22 c-5 -14 -14 -33 -19 -43 -41 -70 -56 -157 -49 -268
2 -28 8 -56 12 -64 5 -8 10 -27 12 -43 5 -43 50 -135 84 -171 16 -17 26 -35
23 -40 -3 -5 -9 -3 -14 4 -7 11 -9 11 -9 1 0 -8 -5 -10 -12 -5 -7 4 -17 8 -23
8 -51 3 -144 19 -160 28 -11 6 -24 12 -30 13 -45 9 -223 88 -314 139 -28 16
-47 21 -51 15 -4 -6 -14 -2 -25 10 -18 20 -18 21 0 38 13 12 16 13 10 2 -5 -9
-4 -12 1 -7 5 5 9 16 9 24 0 9 7 18 15 20 13 4 13 3 0 -7 -12 -9 -12 -11 -1
-8 8 2 15 14 16 26 2 23 15 44 15 24 0 -7 8 -5 20 5 11 10 20 23 20 29 0 6 8
18 18 25 16 13 16 12 3 -6 -7 -11 3 -3 23 18 20 20 41 37 47 37 5 0 7 5 4 10
-3 6 1 10 10 10 10 0 13 5 9 13 -4 6 -4 9 1 5 4 -4 27 8 51 26 23 18 69 46
101 62 32 16 60 32 61 37 2 4 11 7 20 7 10 0 31 9 48 19 27 17 51 26 76 30 4
0 3 -10 -2 -23z m1085 -400 c-10 -20 -20 -36 -24 -36 -4 0 -12 -15 -19 -32 -6
-18 -22 -45 -34 -60 -13 -14 -30 -36 -38 -48 -51 -74 -122 -141 -210 -200 -12
-8 -29 -21 -36 -28 -8 -7 -14 -10 -14 -6 0 4 -11 -3 -25 -16 -14 -13 -25 -20
-25 -16 0 4 -10 1 -22 -6 -13 -7 -27 -12 -33 -13 -5 0 -21 -6 -35 -12 -26 -12
-96 -28 -117 -26 -7 0 -13 -2 -13 -6 0 -17 -280 -17 -290 0 -5 6 -15 9 -24 6
-8 -3 -18 -2 -21 3 -3 5 -19 7 -35 5 -16 -2 -32 0 -35 5 -5 8 -72 23 -78 18
-2 -2 -10 2 -18 8 -8 7 -40 19 -71 28 -32 9 -58 20 -58 25 0 5 -12 12 -27 16
-15 3 -30 10 -33 14 -3 4 -27 20 -55 36 -27 16 -70 44 -95 64 -90 71 -92 83
-10 45 66 -31 203 -81 245 -88 17 -4 46 -9 65 -12 19 -3 46 -8 60 -11 40 -8
310 -11 315 -2 3 4 14 5 24 2 10 -3 22 0 25 6 4 6 25 11 47 11 22 0 53 7 69
15 18 10 30 11 30 5 0 -8 6 -7 20 0 11 6 25 8 30 5 6 -3 10 -1 10 4 0 6 12 11
26 11 29 0 177 59 244 97 25 14 61 34 82 44 20 10 52 34 72 52 20 19 36 33 36
31 0 -2 24 21 53 50 28 30 54 52 55 51 2 -2 -4 -19 -13 -39z"/>
<path d="M1180 5135 c-13 -15 -6 -35 13 -35 8 0 7 4 -2 9 -12 8 -12 12 -2 25
8 9 11 16 8 16 -2 0 -10 -7 -17 -15z"/>
<path d="M1925 5140 c-14 -23 8 -84 75 -201 39 -66 70 -122 70 -124 0 -2 23
-42 50 -90 28 -48 50 -91 50 -96 0 -5 4 -9 9 -9 18 0 24 -49 26 -215 3 -175
11 -331 20 -375 12 -64 19 -87 36 -127 24 -56 49 -57 84 -4 l26 39 2 298 3
299 66 110 c126 210 208 384 208 440 0 32 -36 34 -73 5 -26 -21 -137 -182
-137 -200 0 -5 -6 -13 -14 -17 -7 -4 -15 -13 -17 -19 -7 -19 -94 -153 -100
-154 -3 0 -15 19 -27 43 -120 234 -233 372 -329 401 -12 4 -24 2 -28 -4z"/>
<path d="M3039 3752 c-25 -15 -64 -43 -85 -62 -40 -36 -244 -160 -263 -160 -6
0 -11 -5 -11 -10 0 -6 -3 -10 -7 -9 -19 3 -52 -14 -46 -24 3 -6 1 -7 -5 -3 -6
4 -30 -3 -52 -14 -23 -12 -71 -31 -108 -43 -70 -22 -74 -23 -132 -33 -19 -3
-42 -8 -50 -11 -24 -10 -70 -9 -70 1 0 5 -6 3 -13 -3 -8 -6 -17 -8 -21 -4 -3
4 -14 8 -24 9 -72 10 -104 18 -161 41 -36 14 -68 29 -71 32 -15 18 -92 73 -85
60 5 -8 -17 12 -48 43 -32 31 -57 61 -57 66 0 5 -11 19 -26 33 -18 17 -23 19
-18 6 5 -13 1 -17 -16 -17 -11 0 -18 5 -15 10 9 15 -4 12 -22 -5 -8 -8 -18
-13 -22 -10 -22 13 -1 -50 34 -101 21 -33 37 -59 34 -59 -2 -1 22 -24 54 -54
52 -46 117 -84 213 -122 45 -18 164 -37 170 -27 3 5 11 5 17 -1 13 -10 162 -7
197 4 20 6 52 11 110 17 14 2 31 9 39 16 10 10 16 10 27 1 12 -10 21 -7 46 11
17 12 28 18 24 12 -7 -11 147 58 198 89 16 10 33 16 38 13 4 -3 8 -2 8 3 0 4
15 14 33 22 37 16 196 119 245 158 25 19 30 28 20 35 -10 6 -7 10 10 14 22 6
30 28 14 38 -5 3 -8 19 -7 35 2 27 0 29 -18 19 -14 -7 -17 -7 -13 1 12 19 -17
11 -65 -17z m-499 -422 c-8 -5 -19 -10 -25 -10 -5 0 -3 5 5 10 8 5 20 10 25
10 6 0 3 -5 -5 -10z"/>
<path d="M5219 3339 c-11 -22 -8 -401 6 -664 12 -210 15 -471 6 -484 -23 -34
-167 -7 -238 46 -33 24 -53 29 -53 15 0 -13 109 -114 163 -151 74 -51 172 -92
230 -98 44 -4 55 -2 71 16 17 19 18 30 11 113 -4 51 -9 165 -11 253 -1 88 -5
170 -8 183 -6 26 -6 73 0 382 2 124 1 242 -2 263 -4 29 -19 51 -57 88 -27 27
-56 49 -63 49 -7 0 -19 3 -27 6 -10 3 -20 -3 -28 -17z"/>
<path d="M5179 1582 c-19 -3 -29 -42 -24 -87 14 -116 17 -207 20 -580 5 -486
14 -565 71 -586 46 -16 50 -2 70 271 3 47 8 88 10 92 2 3 6 30 9 60 5 54 13
118 20 173 2 17 7 55 10 85 3 30 10 69 15 85 13 40 18 212 9 288 -9 79 -31
116 -95 162 -51 37 -77 46 -115 37z"/>
<path d="M2660 611 c0 -6 4 -13 10 -16 6 -3 7 1 4 9 -7 18 -14 21 -14 7z"/>
<path d="M2809 365 c17 -33 31 -51 31 -40 0 6 -10 21 -21 35 -13 17 -17 18
-10 5z"/>
</g>
</svg>
